<svg width="2322" height="1033" viewBox="0 0 2322 1033" fill="none" xmlns="http://www.w3.org/2000/svg">
<path d="M182.742 367.227V385.156H165.164V440H145.242V420.547C138.836 427.109 132.664 431.953 126.727 435.078C116.18 440.703 104.383 443.516 91.3359 443.516C75.4766 443.516 61.0625 439.648 48.0938 431.914C36.1406 424.805 26.6484 415.039 19.6172 402.617C12.2734 389.57 8.60156 375.078 8.60156 359.141C8.60156 336.172 15.9453 316.914 30.6328 301.367C46.2578 284.805 66.4922 276.523 91.3359 276.523C106.18 276.523 119.461 279.961 131.18 286.836C135.32 289.258 140.008 292.891 145.242 297.734V280.039H165.164V331.602H147C143.094 322.305 138.406 315.117 132.938 310.039C121.922 299.883 108.289 294.805 92.0391 294.805C70.7109 294.805 54.1484 303.047 42.3516 319.531C34.1484 331.016 30.0469 344.297 30.0469 359.375C30.0469 379.375 36.7656 395.742 50.2031 408.477C62 419.57 75.9844 425.117 92.1562 425.117C104.031 425.117 114.852 421.914 124.617 415.508C135.867 408.086 142.742 397.969 145.242 385.156H103.523V367.227H182.742ZM426.234 276.523C441.781 276.523 456.039 280.43 469.008 288.242C482.68 296.445 493.188 307.383 500.531 321.055C507.094 333.32 510.375 346.484 510.375 360.547C510.375 374.219 507.289 386.992 501.117 398.867C493.539 413.477 482.523 424.844 468.07 432.969C455.57 440 441.859 443.516 426.938 443.516C411.859 443.516 397.602 439.492 384.164 431.445C371.82 424.102 362.016 414.297 354.75 402.031C346.938 388.672 343.031 374.023 343.031 358.086C343.031 335.898 351.195 316.68 367.523 300.43C376.117 291.992 386.156 285.742 397.641 281.68C407.25 278.242 416.781 276.523 426.234 276.523ZM426.234 296.328C413.812 296.328 402.406 300.078 392.016 307.578C383.422 313.672 376.742 321.367 371.977 330.664C367.133 339.883 364.711 349.414 364.711 359.258C364.711 377.773 371.391 393.477 384.75 406.367C391.078 412.461 398.344 416.992 406.547 419.961C413.031 422.305 419.438 423.477 425.766 423.477C437.328 423.477 448.07 420.352 457.992 414.102C468.773 407.305 476.82 398.047 482.133 386.328C485.961 377.891 487.875 369.062 487.875 359.844C487.875 342.422 481.586 327.344 469.008 314.609C462.367 308.047 454.711 303.164 446.039 299.961C439.32 297.539 432.719 296.328 426.234 296.328ZM781.289 392.891V440H672.188V424.18H692.812V295.859H672.188V280.039H733.477V295.859H712.969V424.18H761.602V392.891H781.289ZM961.5 295.859H940.875V280.039H988.57C1006.23 280.039 1020.05 281.367 1030.05 284.023C1049.9 289.18 1065.09 299.922 1075.64 316.25C1084.23 329.453 1088.53 344.141 1088.53 360.312C1088.53 379.297 1082.75 396.055 1071.19 410.586C1058.92 425.977 1042.87 435.312 1023.02 438.594C1017.16 439.531 1006.23 440 990.211 440H940.875V424.18H961.5V295.859ZM982.242 424.18C993.414 424.023 1002.2 423.555 1008.61 422.773C1022.05 421.055 1032.98 417.109 1041.42 410.938C1050.02 404.531 1056.54 396.25 1060.99 386.094C1064.74 377.578 1066.62 368.672 1066.62 359.375C1066.62 343.984 1061.93 330.469 1052.55 318.828C1045.05 309.375 1035.56 302.969 1024.08 299.609C1015.56 297.109 1001.62 295.859 982.242 295.859V424.18ZM1375.73 440H1250.34V424.18H1270.97V295.859H1250.34V280.039H1375.73V322.578H1355.7V295.859H1291.83V347.07H1347.26V364.648H1291.83V424.18H1355.7V392.539H1375.73V440ZM1659.42 406.484V295.859H1638.8V280.039H1700.2V295.859H1679.58V440H1659.42L1580.44 302.188V424.18H1600.95V440H1539.19V424.18H1559.81V295.859H1539.19V280.039H1589.46L1659.42 406.484ZM1988.11 440H1862.72V424.18H1883.34V295.859H1862.72V280.039H1988.11V322.578H1968.07V295.859H1904.2V347.07H1959.63V364.648H1904.2V424.18H1968.07V392.539H1988.11V440ZM2271.8 406.484V295.859H2251.17V280.039H2312.58V295.859H2291.95V440H2271.8L2192.81 302.188V424.18H2213.32V440H2151.56V424.18H2172.19V295.859H2151.56V280.039H2201.84L2271.8 406.484Z" fill="white"/>
<path d="M225.446 951V935.155H270.026V584.154H225.446V569.384H475.202V584.154H427.937V761.669L561.677 628.197C565.616 624.079 568.57 620.23 570.539 616.649C572.688 613.069 573.762 609.577 573.762 606.176C573.762 597.94 570.539 592.211 564.094 588.988C557.827 585.766 546.548 584.154 530.256 584.154H510.92V569.384H685.212V584.154C664.802 584.154 646.898 587.556 631.501 594.359C616.283 600.984 599.901 613.158 582.355 630.883L545.563 668.212L699.714 935.155H738.117V951H487.287V935.155H525.153L427.937 766.234V935.155H467.414V951H225.446ZM867.346 806.786H966.174L916.76 670.629L867.346 806.786ZM872.717 951H768.786V935.155C780.603 933.723 790.36 929.516 798.059 922.533C805.936 915.551 812.292 905.256 817.126 891.649L932.067 569.384H1046.47L1179.67 935.155H1208.68V951H973.425V935.155H1012.37L973.425 826.122H860.095L839.147 888.964C837.715 892.903 836.641 896.841 835.925 900.78C835.209 904.54 834.851 907.852 834.851 910.717C834.851 919.132 837.536 925.308 842.907 929.247C848.457 933.186 856.962 935.155 868.42 935.155H872.717V951ZM1238.86 951V935.155H1283.44V584.154H1238.86V569.384H1493.45V584.154H1442.97V935.155H1472.51C1506.17 935.155 1533.65 924.503 1554.95 903.197C1576.44 881.892 1592.64 849.039 1603.56 804.638H1619.94V951H1238.86ZM1852.24 935.155H1860.03C1884.2 935.155 1900.31 931.127 1908.37 923.07C1916.43 914.835 1920.46 899.617 1920.46 877.416V817.26C1920.46 795.954 1916.07 780.736 1907.3 771.605C1898.52 762.475 1883.84 757.909 1863.25 757.909H1852.24V935.155ZM1852.24 743.676H1858.69C1881.25 743.676 1896.11 740.006 1903.27 732.665C1910.61 725.325 1914.28 711.718 1914.28 691.845V638.134C1914.28 618.619 1910.25 604.743 1902.19 596.508C1894.32 588.272 1880.98 584.154 1862.18 584.154H1852.24V743.676ZM1918.84 569.384C1974.7 569.384 2015.08 576.545 2039.96 590.868C2064.85 605.191 2077.29 628.466 2077.29 660.692C2077.29 687.906 2067.27 708.495 2047.21 722.46C2027.16 736.246 1995.74 744.213 1952.95 746.361V755.224C1998.25 756.656 2031.73 765.25 2053.39 781.005C2075.05 796.581 2085.89 820.035 2085.89 851.366C2085.89 885.562 2072.46 910.717 2045.6 926.83C2018.75 942.943 1976.49 951 1918.84 951H1649.22V935.155H1691.65V584.154H1649.22V569.384H1918.84Z" fill="white"/>
<g clip-path="url(#clip0_604_30)">
<path d="M880.242 0.198486H1030.48V33.7541L934.148 132.016H1033.99V168.091H870.984V133.276L966.258 36.0445H880.242V0.198486ZM1169.81 0.198486H1222.78V100.293C1222.78 110.218 1221.18 119.609 1217.98 128.465C1214.85 137.246 1209.89 144.957 1203.09 151.599C1196.37 158.166 1189.3 162.784 1181.88 165.457C1171.57 169.198 1159.19 171.069 1144.73 171.069C1136.38 171.069 1127.23 170.496 1117.31 169.351C1107.47 168.205 1099.23 165.953 1092.59 162.594C1085.94 159.158 1079.85 154.309 1074.3 148.049C1068.84 141.789 1065.09 135.337 1063.05 128.695C1059.77 118.006 1058.13 108.538 1058.13 100.293V0.198486H1111.1V102.698C1111.1 111.86 1113.68 119.037 1118.84 124.228C1124.07 129.344 1131.3 131.902 1140.52 131.902C1149.66 131.902 1156.8 129.382 1161.96 124.342C1167.19 119.227 1169.81 112.012 1169.81 102.698V0.198486ZM1257.35 0.198486H1327.2L1354.15 102.354L1380.98 0.198486H1450.59V168.091H1407.23V40.0529L1373.6 168.091H1334.34L1300.83 40.0529V168.091H1257.35V0.198486Z" fill="white"/>
<mask id="mask0_604_30" style="mask-type:luminance" maskUnits="userSpaceOnUse" x="869" y="-1" width="583" height="174">
<path d="M1452 -0.977295H869V172.977H1452V-0.977295Z" fill="white"/>
<path d="M880.242 0.198486H1030.48V33.7541L934.148 132.016H1033.99V168.091H870.984V133.276L966.258 36.0445H880.242V0.198486ZM1169.81 0.198486H1222.78V100.293C1222.78 110.218 1221.18 119.609 1217.98 128.465C1214.85 137.246 1209.89 144.957 1203.09 151.599C1196.37 158.166 1189.3 162.784 1181.88 165.457C1171.57 169.198 1159.19 171.069 1144.73 171.069C1136.38 171.069 1127.23 170.496 1117.31 169.351C1107.47 168.205 1099.23 165.953 1092.59 162.594C1085.94 159.158 1079.85 154.309 1074.3 148.049C1068.84 141.789 1065.09 135.337 1063.05 128.695C1059.77 118.006 1058.13 108.538 1058.13 100.293V0.198486H1111.1V102.698C1111.1 111.86 1113.68 119.037 1118.84 124.228C1124.07 129.344 1131.3 131.902 1140.52 131.902C1149.66 131.902 1156.8 129.382 1161.96 124.342C1167.19 119.227 1169.81 112.012 1169.81 102.698V0.198486ZM1257.35 0.198486H1327.2L1354.15 102.354L1380.98 0.198486H1450.59V168.091H1407.23V40.0529L1373.6 168.091H1334.34L1300.83 40.0529V168.091H1257.35V0.198486Z" fill="white"/>
</mask>
<g mask="url(#mask0_604_30)">
<path d="M880.242 0.198464V-0.778809H879.242V0.198464H880.242ZM1030.48 0.198464H1031.48V-0.778809H1030.48V0.198464ZM1030.48 33.7541L1031.2 34.4302L1031.48 34.1466V33.7541H1030.48ZM934.148 132.016L933.426 131.34L931.806 132.993H934.148V132.016ZM1033.99 132.016H1034.99V131.039H1033.99V132.016ZM1033.99 168.091V169.068H1034.99V168.091H1033.99ZM870.984 168.091H869.984V169.068H870.984V168.091ZM870.984 133.276L870.262 132.599L869.984 132.883V133.276H870.984ZM966.258 36.0445L966.98 36.7204L968.6 35.0672H966.258V36.0445ZM880.242 36.0445H879.242V37.0218H880.242V36.0445ZM880.242 1.17573H1030.48V-0.778809H880.242V1.17573ZM1029.48 0.198464V33.7541H1031.48V0.198464H1029.48ZM1029.75 33.078L933.426 131.34L934.87 132.692L1031.2 34.4302L1029.75 33.078ZM934.148 132.993H1033.99V131.039H934.148V132.993ZM1032.99 132.016V168.091H1034.99V132.016H1032.99ZM1033.99 167.114H870.984V169.068H1033.99V167.114ZM871.984 168.091V133.276H869.984V168.091H871.984ZM871.707 133.952L966.98 36.7204L965.536 35.3686L870.262 132.599L871.707 133.952ZM966.258 35.0672H880.242V37.0218H966.258V35.0672ZM881.242 36.0445V0.198464H879.242V36.0445H881.242ZM1169.81 0.198464V-0.778809H1168.81V0.198464H1169.81ZM1222.78 0.198464H1223.78V-0.778809H1222.78V0.198464ZM1217.98 128.465L1217.03 128.14L1217.03 128.145L1217.98 128.465ZM1181.88 165.457L1181.54 164.539L1181.54 164.54L1181.88 165.457ZM1117.31 169.351L1117.19 170.321H1117.2L1117.31 169.351ZM1092.59 162.594L1092.12 163.458L1092.13 163.462L1092.59 162.594ZM1074.3 148.049L1073.54 148.683L1073.55 148.689L1074.3 148.049ZM1063.05 128.695L1064.01 128.415V128.414L1063.05 128.695ZM1058.13 0.198464V-0.778809H1057.13V0.198464H1058.13ZM1111.1 0.198464H1112.1V-0.778809H1111.1V0.198464ZM1118.84 124.228L1118.12 124.909L1118.12 124.914L1118.13 124.919L1118.84 124.228ZM1169.81 1.17573H1222.78V-0.778809H1169.81V1.17573ZM1221.78 0.198464V100.293H1223.78V0.198464H1221.78ZM1221.78 100.293C1221.78 110.113 1220.2 119.393 1217.03 128.14L1218.92 128.791C1222.16 119.824 1223.78 110.322 1223.78 100.293H1221.78ZM1217.03 128.145C1213.96 136.784 1209.08 144.37 1202.39 150.908L1203.8 152.29C1210.7 145.545 1215.75 137.707 1218.92 128.787L1217.03 128.145ZM1202.39 150.908C1195.75 157.395 1188.8 161.925 1181.54 164.539L1182.23 166.374C1189.81 163.644 1197 158.937 1203.8 152.29L1202.39 150.908ZM1181.54 164.54C1171.36 168.231 1159.1 170.091 1144.73 170.091V172.046C1159.27 172.046 1171.78 170.165 1182.23 166.373L1181.54 164.54ZM1144.73 170.091C1136.42 170.091 1127.32 169.522 1117.43 168.38L1117.2 170.321C1127.15 171.47 1136.33 172.046 1144.73 172.046V170.091ZM1117.43 168.38C1107.67 167.245 1099.55 165.017 1093.05 161.726L1092.13 163.462C1098.9 166.889 1107.27 169.166 1117.19 170.321L1117.43 168.38ZM1093.05 161.73C1086.54 158.357 1080.54 153.59 1075.06 147.41L1073.55 148.689C1079.17 155.03 1085.35 159.958 1092.12 163.458L1093.05 161.73ZM1075.07 147.415C1069.67 141.238 1066 134.905 1064.01 128.415L1062.1 128.975C1064.17 135.77 1068 142.339 1073.54 148.683L1075.07 147.415ZM1064.01 128.414C1060.75 117.786 1059.13 108.417 1059.13 100.293H1057.13C1057.13 108.66 1058.8 118.226 1062.1 128.976L1064.01 128.414ZM1059.13 100.293V0.198464H1057.13V100.293H1059.13ZM1058.13 1.17573H1111.1V-0.778809H1058.13V1.17573ZM1110.1 0.198464V102.698H1112.1V0.198464H1110.1ZM1110.1 102.698C1110.1 112.042 1112.74 119.489 1118.12 124.909L1119.55 123.548C1114.62 118.583 1112.1 111.676 1112.1 102.698H1110.1ZM1118.13 124.919C1123.59 130.261 1131.1 132.879 1140.52 132.879V130.924C1131.49 130.924 1124.55 128.426 1119.54 123.537L1118.13 124.919ZM1140.52 132.879C1149.85 132.879 1157.28 130.3 1162.67 125.033L1161.25 123.651C1156.33 128.463 1149.46 130.924 1140.52 130.924V132.879ZM1162.67 125.033C1168.14 119.687 1170.81 112.194 1170.81 102.698H1168.81C1168.81 111.831 1166.25 118.768 1161.25 123.651L1162.67 125.033ZM1170.81 102.698V0.198464H1168.81V102.698H1170.81ZM1257.35 0.198464V-0.778809H1256.35V0.198464H1257.35ZM1327.2 0.198464L1328.16 -0.0455423L1327.97 -0.778809H1327.2V0.198464ZM1354.15 102.354L1353.18 102.598L1355.12 102.597L1354.15 102.354ZM1380.98 0.198464V-0.778809H1380.21L1380.02 -0.0445471L1380.98 0.198464ZM1450.59 0.198464H1451.59V-0.778809H1450.59V0.198464ZM1450.59 168.091V169.068H1451.59V168.091H1450.59ZM1407.23 168.091H1406.23V169.068H1407.23V168.091ZM1407.23 40.0529H1408.23L1406.27 39.8098L1407.23 40.0529ZM1373.6 168.091V169.068H1374.38L1374.57 168.334L1373.6 168.091ZM1334.34 168.091L1333.38 168.333L1333.57 169.068H1334.34V168.091ZM1300.83 40.0529L1301.8 39.8106L1299.83 40.0529H1300.83ZM1300.83 168.091V169.068H1301.83V168.091H1300.83ZM1257.35 168.091H1256.35V169.068H1257.35V168.091ZM1257.35 1.17573H1327.2V-0.778809H1257.35V1.17573ZM1326.23 0.442471L1353.18 102.598L1355.12 102.11L1328.16 -0.0455423L1326.23 0.442471ZM1355.12 102.597L1381.95 0.441476L1380.02 -0.0445471L1353.18 102.111L1355.12 102.597ZM1380.98 1.17573H1450.59V-0.778809H1380.98V1.17573ZM1449.59 0.198464V168.091H1451.59V0.198464H1449.59ZM1450.59 167.114H1407.23V169.068H1450.59V167.114ZM1408.23 168.091V40.0529H1406.23V168.091H1408.23ZM1406.27 39.8098L1372.63 167.848L1374.57 168.334L1408.2 40.2958L1406.27 39.8098ZM1373.6 167.114H1334.34V169.068H1373.6V167.114ZM1335.31 167.849L1301.8 39.8106L1299.86 40.2951L1333.38 168.333L1335.31 167.849ZM1299.83 40.0529V168.091H1301.83V40.0529H1299.83ZM1300.83 167.114H1257.35V169.068H1300.83V167.114ZM1258.35 168.091V0.198464H1256.35V168.091H1258.35Z" fill="white"/>
</g>
</g>
<defs>
<clipPath id="clip0_604_30">
<rect width="581" height="172" fill="white" transform="translate(870)"/>
</clipPath>
</defs>
</svg>
